<?xml version="1.0" standalone="no"?>
<!DOCTYPE svg PUBLIC "-//W3C//DTD SVG 20010904//EN"
 "http://www.w3.org/TR/2001/REC-SVG-20010904/DTD/svg10.dtd">
<svg version="1.0" xmlns="http://www.w3.org/2000/svg"
 width="1600.000000pt" height="1600.000000pt" viewBox="0 0 1600.000000 1600.000000"
 preserveAspectRatio="xMidYMid meet">
<metadata>
Created by potrace 1.11, written by Peter Selinger 2001-2013
</metadata>
<g transform="translate(0.000000,1600.000000) scale(0.100000,-0.100000)"
fill="#000000" stroke="none">
<path d="M7619 14967 c-558 -348 -1435 -894 -1954 -1218 l-460 -287 -3 -715
-2 -714 -1228 -682 c-695 -386 -1268 -711 -1321 -749 -155 -110 -311 -277
-418 -447 -43 -68 -127 -246 -153 -325 -12 -36 -34 -112 -48 -170 l-26 -105
-4 -1150 -3 -1150 -197 -122 c-108 -67 -467 -291 -797 -496 l-600 -374 0
-1463 0 -1462 1395 -869 c881 -549 1400 -867 1409 -864 9 4 312 191 674 416
l657 410 1348 -734 c741 -404 1370 -746 1397 -759 67 -34 203 -82 296 -107
136 -35 230 -45 399 -45 137 1 186 6 291 27 151 32 271 73 399 137 52 26 666
390 1363 809 698 418 1272 761 1277 761 4 0 340 -207 745 -460 406 -253 741
-460 745 -460 6 0 757 467 2328 1447 l472 295 -2 1461 -3 1460 -797 496 -797
496 -3 1150 -4 1150 -26 105 c-100 399 -315 726 -619 942 -52 37 -635 367
-1321 749 l-1228 682 -2 715 -3 714 -465 290 c-2166 1351 -2322 1448 -2330
1448 -4 0 -175 -105 -381 -233z m2779 -2968 l-3 -1232 -460 -286 c-253 -158
-790 -493 -1193 -744 -402 -251 -734 -457 -737 -457 -3 0 -4 585 -3 1300 l3
1301 1190 673 c655 371 1193 674 1198 675 4 1 6 -553 5 -1230z m-5196 -950 l3
-511 1394 -869 c767 -478 1397 -869 1401 -869 4 0 634 391 1401 869 l1394 870
3 511 c2 403 5 511 15 507 45 -17 2260 -1256 2304 -1288 209 -155 374 -396
437 -642 44 -167 47 -262 44 -1220 l-3 -897 -394 245 c-217 135 -397 245 -401
245 -4 0 -124 -73 -266 -161 -413 -257 -1651 -1029 -2109 -1315 l-420 -262 -3
-1460 -2 -1461 460 -287 461 -287 -1213 -726 c-667 -400 -1240 -739 -1273
-754 -287 -125 -633 -128 -917 -7 -88 38 -2568 1390 -2568 1400 0 5 24 23 53
40 28 18 265 165 525 327 l472 295 -2 1461 -3 1460 -945 589 c-1669 1040
-1825 1137 -1840 1143 -10 3 -165 -87 -410 -240 l-395 -245 -3 897 c-3 954 0
1051 43 1218 64 255 250 518 466 662 66 44 2267 1272 2281 1273 4 0 9 -230 10
-511z m396 -6250 l-3 -1232 -1193 -743 c-656 -409 -1195 -744 -1197 -744 -3 0
-4 585 -3 1300 l3 1301 1190 673 c655 371 1193 674 1198 675 4 1 6 -553 5
-1230z m9600 0 l-3 -1232 -1193 -743 c-656 -409 -1195 -744 -1197 -744 -3 0
-4 585 -3 1300 l3 1301 1190 673 c655 371 1193 674 1198 675 4 1 6 -553 5
-1230z"/>
</g>
</svg>
